<svg width="205" height="27" viewBox="0 0 205 27" fill="none" xmlns="http://www.w3.org/2000/svg">
<path d="M-7.02739e-05 25.6328V0.432811H3.59993V25.6328H-7.02739e-05ZM7.31243 25.6328V0.432811H12.1724L20.1644 18.4328H20.2724L28.2284 0.432811H33.0884V25.6328H29.4884V6.15681H29.3804L22.2164 22.0328H18.1844L11.0204 6.15681H10.9124V25.6328H7.31243ZM35.3677 25.6328L43.9717 0.432811H49.2277L57.7597 25.6328H53.9797L46.6717 3.34881H46.5637L39.1117 25.6328H35.3677ZM39.5437 18.3248L40.5517 15.4448H52.3957L53.3677 18.3248H39.5437ZM66.4916 26.0648C64.9556 26.0648 63.6116 25.7768 62.4596 25.2008C61.3316 24.6008 60.4556 23.7368 59.8316 22.6088C59.2316 21.4808 58.9316 20.1368 58.9316 18.5768H62.5316C62.5316 19.3928 62.6636 20.1248 62.9276 20.7728C63.1916 21.4208 63.6116 21.9368 64.1876 22.3208C64.7636 22.6808 65.5196 22.8608 66.4556 22.8608C67.3676 22.8608 68.0876 22.6808 68.6156 22.3208C69.1676 21.9608 69.5636 21.4808 69.8036 20.8808C70.0436 20.2568 70.1636 19.5488 70.1636 18.7568V0.432811H73.7636V18.7568C73.7636 21.0848 73.1156 22.8848 71.8196 24.1568C70.5476 25.4288 68.7716 26.0648 66.4916 26.0648ZM77.5195 25.6328V0.432811H81.1195V25.6328H77.5195Z" fill="#3F4E4F"/>
<path d="M104.123 26.0648C101.627 26.0648 99.4672 25.5248 97.6432 24.4448C95.8432 23.3408 94.4512 21.8168 93.4672 19.8728C92.5072 17.9048 92.0272 15.6248 92.0272 13.0328C92.0272 10.4648 92.5192 8.19681 93.5032 6.22881C94.4872 4.26081 95.8792 2.73681 97.6792 1.65681C99.4792 0.552812 101.627 0.000812054 104.123 0.000812054C107.075 0.000812054 109.475 0.708812 111.323 2.12481C113.171 3.54081 114.347 5.53281 114.851 8.10081H110.855C110.495 6.61281 109.751 5.43681 108.623 4.57281C107.519 3.68481 106.007 3.24081 104.087 3.24081C102.383 3.24081 100.895 3.63681 99.6232 4.42881C98.3752 5.19681 97.4032 6.32481 96.7072 7.81281C96.0352 9.27681 95.6992 11.0168 95.6992 13.0328C95.6992 15.0728 96.0352 16.8248 96.7072 18.2888C97.4032 19.7528 98.3752 20.8808 99.6232 21.6728C100.895 22.4408 102.383 22.8248 104.087 22.8248C106.007 22.8248 107.531 22.4048 108.659 21.5648C109.811 20.7008 110.567 19.5488 110.927 18.1088H114.851C114.347 20.6048 113.171 22.5608 111.323 23.9768C109.475 25.3688 107.075 26.0648 104.123 26.0648ZM126.263 26.0648C124.583 26.0648 123.059 25.6808 121.691 24.9128C120.347 24.1208 119.279 23.0288 118.487 21.6368C117.695 20.2208 117.299 18.5768 117.299 16.7048C117.299 14.8328 117.695 13.2008 118.487 11.8088C119.279 10.3928 120.359 9.30081 121.727 8.53281C123.095 7.74081 124.631 7.34481 126.335 7.34481C128.015 7.34481 129.539 7.74081 130.907 8.53281C132.275 9.30081 133.343 10.3928 134.111 11.8088C134.903 13.2008 135.299 14.8328 135.299 16.7048C135.299 18.5768 134.903 20.2208 134.111 21.6368C133.319 23.0288 132.239 24.1208 130.871 24.9128C129.503 25.6808 127.967 26.0648 126.263 26.0648ZM126.263 23.1128C127.223 23.1128 128.099 22.8848 128.891 22.4288C129.707 21.9488 130.367 21.2408 130.871 20.3048C131.375 19.3448 131.627 18.1448 131.627 16.7048C131.627 15.2648 131.375 14.0768 130.871 13.1408C130.391 12.1808 129.743 11.4728 128.927 11.0168C128.135 10.5368 127.271 10.2968 126.335 10.2968C125.399 10.2968 124.523 10.5368 123.707 11.0168C122.891 11.4728 122.231 12.1808 121.727 13.1408C121.223 14.0768 120.971 15.2648 120.971 16.7048C120.971 18.1448 121.223 19.3448 121.727 20.3048C122.231 21.2408 122.879 21.9488 123.671 22.4288C124.487 22.8848 125.351 23.1128 126.263 23.1128ZM139.457 25.6328V5.58081C139.457 4.33281 139.673 3.31281 140.105 2.52081C140.537 1.72881 141.149 1.15281 141.941 0.79281C142.757 0.432811 143.741 0.252811 144.893 0.252811H146.765V3.16881H145.469C144.605 3.16881 143.981 3.34881 143.597 3.70881C143.237 4.06881 143.057 4.68081 143.057 5.54481V25.6328H139.457ZM136.865 10.5488V7.77681H147.269V10.5488H136.865ZM150.883 25.6328V5.58081C150.883 4.33281 151.099 3.31281 151.531 2.52081C151.963 1.72881 152.575 1.15281 153.367 0.79281C154.183 0.432811 155.167 0.252811 156.319 0.252811H158.191V3.16881H156.895C156.031 3.16881 155.407 3.34881 155.023 3.70881C154.663 4.06881 154.483 4.68081 154.483 5.54481V25.6328H150.883ZM148.291 10.5488V7.77681H158.695V10.5488H148.291ZM169.153 26.0648C167.401 26.0648 165.853 25.6808 164.509 24.9128C163.165 24.1208 162.109 23.0288 161.341 21.6368C160.573 20.2448 160.189 18.6128 160.189 16.7408C160.189 14.8688 160.561 13.2368 161.305 11.8448C162.073 10.4288 163.129 9.32481 164.473 8.53281C165.841 7.74081 167.413 7.34481 169.189 7.34481C170.941 7.34481 172.453 7.74081 173.725 8.53281C175.021 9.30081 176.017 10.3208 176.713 11.5928C177.433 12.8648 177.793 14.2808 177.793 15.8408C177.793 16.0808 177.781 16.3448 177.757 16.6328C177.757 16.9208 177.745 17.2208 177.721 17.5328H162.817V15.0128H174.193C174.121 13.5008 173.605 12.3248 172.645 11.4848C171.709 10.6208 170.545 10.1888 169.153 10.1888C168.169 10.1888 167.257 10.4048 166.417 10.8368C165.601 11.2688 164.941 11.9168 164.437 12.7808C163.957 13.6208 163.717 14.7008 163.717 16.0208V17.0288C163.717 18.3488 163.957 19.4648 164.437 20.3768C164.941 21.2648 165.613 21.9368 166.453 22.3928C167.293 22.8488 168.181 23.0768 169.117 23.0768C170.245 23.0768 171.193 22.8248 171.961 22.3208C172.729 21.7928 173.293 21.0848 173.653 20.1968H177.253C176.941 21.3248 176.413 22.3328 175.669 23.2208C174.925 24.0848 174.001 24.7808 172.897 25.3088C171.817 25.8128 170.569 26.0648 169.153 26.0648ZM188.77 26.0648C187.018 26.0648 185.47 25.6808 184.126 24.9128C182.782 24.1208 181.726 23.0288 180.958 21.6368C180.19 20.2448 179.806 18.6128 179.806 16.7408C179.806 14.8688 180.178 13.2368 180.922 11.8448C181.69 10.4288 182.746 9.32481 184.09 8.53281C185.458 7.74081 187.03 7.34481 188.806 7.34481C190.558 7.34481 192.07 7.74081 193.342 8.53281C194.638 9.30081 195.634 10.3208 196.33 11.5928C197.05 12.8648 197.41 14.2808 197.41 15.8408C197.41 16.0808 197.398 16.3448 197.374 16.6328C197.374 16.9208 197.362 17.2208 197.338 17.5328H182.434V15.0128H193.81C193.738 13.5008 193.222 12.3248 192.262 11.4848C191.326 10.6208 190.162 10.1888 188.77 10.1888C187.786 10.1888 186.874 10.4048 186.034 10.8368C185.218 11.2688 184.558 11.9168 184.054 12.7808C183.574 13.6208 183.334 14.7008 183.334 16.0208V17.0288C183.334 18.3488 183.574 19.4648 184.054 20.3768C184.558 21.2648 185.23 21.9368 186.07 22.3928C186.91 22.8488 187.798 23.0768 188.734 23.0768C189.862 23.0768 190.81 22.8248 191.578 22.3208C192.346 21.7928 192.91 21.0848 193.27 20.1968H196.87C196.558 21.3248 196.03 22.3328 195.286 23.2208C194.542 24.0848 193.618 24.7808 192.514 25.3088C191.434 25.8128 190.186 26.0648 188.77 26.0648ZM201.944 25.8128C201.272 25.8128 200.708 25.5968 200.252 25.1648C199.82 24.7088 199.604 24.1688 199.604 23.5448C199.604 22.9208 199.82 22.3928 200.252 21.9608C200.708 21.5288 201.272 21.3128 201.944 21.3128C202.616 21.3128 203.168 21.5288 203.6 21.9608C204.032 22.3928 204.248 22.9208 204.248 23.5448C204.248 24.1688 204.032 24.7088 203.6 25.1648C203.168 25.5968 202.616 25.8128 201.944 25.8128Z" fill="#A27B5C"/>
</svg>
