<svg width="21" height="26" viewBox="0 0 21 26" fill="none" xmlns="http://www.w3.org/2000/svg">
<path fill-rule="evenodd" clip-rule="evenodd" d="M15.336 0C15.5008 1.50925 14.9069 2.99675 14.0389 4.09C13.1332 5.1665 11.6842 5.9895 10.273 5.8835C10.0884 4.43125 10.8033 2.88675 11.6038 1.9445C12.5086 0.875 14.0796 0.056 15.336 0ZM19.9558 8.70716C19.7979 8.80208 17.1884 10.3711 17.2169 13.5708C17.2507 17.4338 20.5739 18.712 20.6136 18.726C20.5937 18.8162 20.093 20.5705 18.8468 22.35C17.8058 23.9175 16.7154 25.451 14.9834 25.478C14.1601 25.497 13.6041 25.2588 13.0248 25.0106C12.4204 24.7516 11.7906 24.4818 10.8053 24.4818C9.76124 24.4818 9.10368 24.7603 8.46959 25.0289C7.92092 25.2614 7.38982 25.4864 6.64112 25.517C4.99143 25.578 3.73133 23.8445 2.65263 22.29C0.496722 19.1182 -1.18175 13.3518 1.0687 9.4275C2.15907 7.50325 4.14748 6.26375 6.27287 6.23075C7.20873 6.21134 8.10634 6.57466 8.89321 6.89316C9.49486 7.13668 10.0318 7.354 10.4715 7.354C10.8579 7.354 11.3799 7.14534 11.9882 6.90216C12.9469 6.51893 14.1201 6.04996 15.3151 6.17675C16.1325 6.20075 18.4584 6.50175 19.959 8.70525L19.9558 8.70716Z" fill="white"/>
</svg>
